#!OML:ASF H:\Terrain\Patient Classification 1\Walking\steve\steve.ASF
:FULLY-SPECIFIED
:DEGREES
265
root 10.2578 16.8436 27.1974 5.58052 1.35977 -3.70644
lowerback 1.77765 2.07443 4.60839
upperback -3.60682 3.04977 2.00572
thorax -4.60151 1.39103 -0.673458
lowerneck -8.80076 -1.97275 -3.60944
upperneck 17.4309 -2.69408 3.17571
head 6.85659 -1.26029 1.39308
rclavicle 1.79527e-014 2.38542e-015
rhumerus -36.038 -17.3687 -78.8781
rradius 25.0985
rwrist 10.8053
rhand -21.065 -37.3537
rfingers 7.12502
rthumb 5.31156 -67.2671
lclavicle 1.79527e-014 2.38542e-015
lhumerus -33.8062 -5.84854 93.116
lradius 28.5277
lwrist 13.9964
lhand -26.1275 -16.6085
lfingers 7.12502
lthumb 0.422642 13.3708
rfemur -18.6005 1.43744 29.8437
rtibia 33.7296
rfoot -17.9679 9.96505
rtoes -4.1018
lfemur -28.8181 4.53189 -15.6424
ltibia 75.5195
lfoot -1.52274 2.90397
ltoes -16.8976
266
root 10.2744 16.8489 27.4412 5.6403 1.11056 -3.83731
lowerback -1.5684 2.23467 4.9721
upperback -1.14864 2.92167 1.91284
thorax -0.154037 1.44077 -0.772732
lowerneck -10.7447 -1.95522 -3.44363
upperneck 16.0562 -2.62165 3.26272
head 6.7533 -1.19288 1.38238
rclavicle 1.11816e-015 -7.15625e-015
rhumerus -30.2174 -16.3202 -81.3018
rradius 26.522
rwrist 9.03766
rhand -20.902 -37.5538
rfingers 7.12502
rthumb 5.46899 -67.4633
lclavicle 1.11816e-015 -7.15625e-015
lhumerus -30.5304 -4.14514 92.0363
lradius 25.2884
lwrist 10.8427
lhand -25.0584 -15.4747
lfingers 7.12502
lthumb 1.45515 14.5001
rfemur -17.5723 0.971742 29.9713
rtibia 33.4517
rfoot -18.4311 10.5839
rtoes -4.37833
lfemur -30.0989 4.7196 -15.7438
ltibia 74.3653
lfoot -2.97594 2.43603
ltoes -15.5228
267
root 10.2815 16.8487 27.6785 5.66172 0.781745 -3.84713
lowerback -2.91034 2.50053 5.33014
upperback -0.0481832 3.12603 1.56906
thorax 1.77919 1.59779 -1.2241
lowerneck -11.5833 -2.04015 -3.32975
upperneck 15.3132 -2.78473 3.6631
head 6.67128 -1.22522 1.46991
rclavicle -1.85615e-014 -2.34566e-014
rhumerus -26.8437 -15.5372 -82.9534
rradius 28.2475
rwrist 7.16411
rhand -21.8162 -37.1087
rfingers 7.12502
rthumb 4.58624 -67.039
lclavicle -1.85615e-014 -2.34566e-014
lhumerus -29.3681 -2.50028 90.8538
lradius 22.2372
lwrist 7.27153
lhand -24.0538 -14.6599
lfingers 7.12502
lthumb 2.4254 15.3061
rfemur -16.548 0.895338 29.9836
rtibia 33.2535
rfoot -18.6892 11.0414
rtoes -3.47942
lfemur -31.3574 4.86977 -15.8763
ltibia 72.9776
lfoot -4.34846 1.95285
ltoes -13.8853
268
root 10.2933 16.8361 27.9162 5.57377 0.41351 -3.98154
lowerback -2.15535 2.46864 4.91222
upperback -0.496719 3.16405 1.91787
thorax 0.853965 1.58965 -0.682959
lowerneck -11.0637 -1.88236 -3.70412
upperneck 15.5035 -2.51796 3.64449
head 6.63621 -1.12479 1.55426
rclavicle 5.04416e-015 3.18055e-015
rhumerus -26.1088 -12.8269 -83.4067
rradius 30.2556
rwrist 4.65263
rhand -22.6063 -36.9698
rfingers 7.12502
rthumb 3.82328 -66.9152
lclavicle 5.04416e-015 3.18055e-015
lhumerus -31.0376 1.12176 89.8641
lradius 19.4528
lwrist 2.79268
lhand -23.851 -15.1025
lfingers 7.12502
lthumb 2.62126 14.8612
rfemur -15.3922 0.476986 30.1367
rtibia 33.0485
rfoot -18.9251 11.8514
rtoes -3.24379
lfemur -32.5308 4.97367 -15.8732
ltibia 71.3874
lfoot -5.65256 1.68203
ltoes -14.0378
269
root 10.3141 16.8193 28.1617 5.62834 0.0876686 -4.25258
lowerback 0.46471 2.54303 5.14778
upperback -2.55655 3.54377 1.8954
thorax -2.70596 1.67473 -1.01881
lowerneck -9.38645 -1.85301 -3.63599
upperneck 16.7202 -2.54092 3.46025
head 6.72961 -1.16049 1.49636
rclavicle -7.83584e-014 -1.90833e-014
rhumerus -28.3977 -10.5121 -83.5377
rradius 32.9766
rwrist 1.97065
rhand -21.9925 -37.748
rfingers 7.12502
rthumb 4.41605 -67.682
lclavicle -7.83584e-014 -1.90833e-014
lhumerus -35.5623 3.63968 88.1218
lradius 17.4297
lwrist -1.50443
lhand -23.0488 -15.2208
lfingers 7.12502
lthumb 3.39594 14.7319
rfemur -14.3503 -0.442361 30.3415
rtibia 32.7814
rfoot -18.9317 13.1112
rtoes -2.09178
lfemur -33.7104 5.00289 -15.8006
ltibia 69.4746
lfoot -6.90586 1.6567
ltoes -14.3984
270
root 10.3306 16.8144 28.4167 5.68643 -0.377987 -4.27659
lowerback 0.321244 2.66716 5.20242
upperback -2.52201 3.69483 1.7648
thorax -2.56935 1.75092 -1.17724
lowerneck -9.4975 -1.95203 -3.57467
upperneck 16.6857 -2.70075 3.56011
head 6.74455 -1.22455 1.50343
rclavicle 1.58903e-014 4.37326e-015
rhumerus -27.0859 -8.84962 -84.2608
rradius 35.0146
rwrist -0.218906
rhand -20.824 -39.1766
rfingers 7.12502
rthumb 5.54425 -69.0841
lclavicle 1.58903e-014 4.37326e-015
lhumerus -36.7661 6.94081 85.6312
lradius 15.206
lwrist -6.63314
lhand -21.2938 -14.3935
lfingers 7.12502
lthumb 5.09071 15.5254
rfemur -13.2829 -1.11654 30.2254
rtibia 32.4446
rfoot -18.6785 14.3601
rtoes 0.691991
lfemur -34.6145 5.16346 -15.973
ltibia 67.1573
lfoot -8.21282 1.71657
ltoes -16.5215
271
root 10.3533 16.8088 28.6681 5.67338 -0.860695 -4.13818
lowerback -0.760018 2.81148 5.29972
upperback -1.65327 3.7656 1.57432
thorax -1.04166 1.83147 -1.34166
lowerneck -10.0579 -1.73918 -3.17863
upperneck 16.0422 -2.41103 3.37464
head 6.61875 -1.07272 1.39814
rclavicle -7.09413e-015 -8.74653e-015
rhumerus -24.2617 -7.13918 -84.9789
rradius 36.6007
rwrist -2.22317
rhand -20.0061 -40.6927
rfingers 7.12502
rthumb 6.33396 -70.578
lclavicle -7.09413e-015 -8.74653e-015
lhumerus -36.7915 11.7361 82.3205
lradius 12.8076
lwrist -13.0536
lhand -20.6604 -14.5601
lfingers 7.12502
lthumb 5.70221 15.3432
rfemur -12.1126 -1.92382 29.845
rtibia 32.0476
rfoot -18.312 15.9226
rtoes 2.76504
lfemur -35.2209 5.23924 -16.3001
ltibia 64.538
lfoot -9.41676 1.73677
ltoes -17.1902
272
root 10.3838 16.7995 28.9219 5.77507 -1.12735 -4.39405
lowerback -2.081 2.93757 5.95352
upperback -0.765082 3.78542 1.49348
thorax 0.660983 1.89214 -1.68188
lowerneck -10.8705 -1.66372 -3.01943
upperneck 15.7347 -2.27372 3.18137
head 6.65374 -1.00664 1.31628
rclavicle 2.20403e-014 -9.54166e-015
rhumerus -21.4695 -5.45405 -85.3857
rradius 38.3789
rwrist -4.04305
rhand -19.7514 -40.8303
rfingers 7.12502
rthumb 6.57983 -70.7081
lclavicle 2.20403e-014 -9.54166e-015
lhumerus -37.3686 17.6692 78.1185
lradius 10.7765
lwrist -20.4829
lhand -20.9651 -15.9445
lfingers 7.12502
lthumb 5.40803 13.9665
rfemur -10.944 -2.94553 29.7901
rtibia 31.5588
rfoot -17.9294 17.6364
rtoes 4.0169
lfemur -35.9049 5.16828 -16.1696
ltibia 61.6773
lfoot -10.2988 1.75026
ltoes -16.5823
273
root 10.397 16.791 29.1809 5.94271 -1.54681 -5.22934
lowerback -2.46987 3.15377 6.8173
upperback -0.616605 4.01086 1.65509
thorax 1.09518 2.01914 -1.95432
lowerneck -11.2762 -1.77578 -3.50701
upperneck 15.8326 -2.42176 3.70954
head 6.77318 -1.05827 1.55133
rclavicle 2.73577e-014 -1.98785e-015
rhumerus -20.0058 -4.1233 -85.4217
rradius 40.404
rwrist -5.8478
rhand -19.9696 -40.2292
rfingers 7.12502
rthumb 6.36917 -70.1135
lclavicle 2.73577e-014 -1.98785e-015
lhumerus -38.2749 17.5139 77.9842
lradius 9.43329
lwrist -20.9133
lhand -21.5939 -15.6029
lfingers 7.12502
lthumb 4.80087 14.3228
rfemur -9.7655 -3.22005 30.4655
rtibia 30.9536
rfoot -17.4123 18.6499
rtoes 4.54401
lfemur -36.6333 5.46555 -15.3016
ltibia 58.5676
lfoot -11.0083 1.83564
ltoes -16.6017
274
root 10.4042 16.7945 29.4277 6.05015 -2.28566 -5.51923
lowerback -1.24707 3.36959 6.826
upperback -1.45187 4.45305 1.77004
thorax -0.42411 2.17961 -1.93329
lowerneck -10.6855 -1.57617 -3.23529
upperneck 16.0477 -2.1749 3.45226
head 6.72344 -0.94987 1.45
rclavicle 1.38901e-014 1.27222e-014
rhumerus -20.1988 -2.63909 -85.2173
rradius 42.5542
rwrist -7.88163
rhand -20.4645 -40.0474
rfingers 7.12502
rthumb 5.89137 -69.9455
lclavicle 1.38901e-014 1.27222e-014
lhumerus -40.952 17.0635 77.433
lradius 8.32784
lwrist -21.5265
lhand -22.3782 -14.9773
lfingers 7.12502
lthumb 4.04361 14.9641
rfemur -8.5151 -2.98144 30.5583
rtibia 30.2008
rfoot -16.5823 19.2276
rtoes 5.79339
lfemur -37.0849 5.8043 -14.9864
ltibia 55.1318
lfoot -11.6384 2.13294
ltoes -15.0025
275
root 10.4272 16.8172 29.6829 6.15204 -2.89294 -4.93992
lowerback -2.77267 3.53672 6.43907
upperback -0.318947 4.49127 1.53873
thorax 1.59385 2.27646 -1.80923
lowerneck -11.5177 -1.77103 -3.82738
upperneck 15.2374 -2.36549 3.89853
head 6.62848 -1.03355 1.66684
rclavicle -9.26834e-015 -6.36111e-015
rhumerus -16.9973 -1.1049 -85.1818
rradius 44.0548
rwrist -9.84279
rhand -20.5444 -40.2934
rfingers 7.12502
rthumb 5.81422 -70.1937
lclavicle -9.26834e-015 -6.36111e-015
lhumerus -40.4406 17.4638 77.6284
lradius 6.83675
lwrist -22.0739
lhand -23.9654 -14.9526
lfingers 7.12502
lthumb 2.51081 15.0124
rfemur -7.16328 -3.47015 29.5166
rtibia 29.2263
rfoot -16.2075 19.9794
rtoes 4.75084
lfemur -37.2194 5.62157 -15.6278
ltibia 51.3866
lfoot -12.2901 2.67048
ltoes -12.5749
276
root 10.4536 16.8259 29.9479 6.27446 -3.41417 -4.69203
lowerback -0.917721 3.61817 6.34085
upperback -1.89946 4.83455 1.25631
thorax -1.03324 2.34618 -2.22519
lowerneck -10.1685 -1.69784 -3.76853
upperneck 16.0518 -2.3491 3.94009
head 6.65218 -1.03077 1.68247
rclavicle -3.85145e-014 -2.10712e-014
rhumerus -18.2957 0.373234 -85.1649
rradius 45.9807
rwrist -11.4725
rhand -20.7104 -40.3965
rfingers 7.12502
rthumb 5.65395 -70.3011
lclavicle -3.85145e-014 -2.10712e-014
lhumerus -44.8616 16.3421 76.0786
lradius 6.84065
lwrist -21.8616
lhand -24.364 -14.7959
lfingers 7.12502
lthumb 2.12584 15.1733
rfemur -5.68444 -4.35762 28.7436
rtibia 28.069
rfoot -15.6782 21.2346
rtoes 1.69326
lfemur -37.2517 5.28527 -15.8165
ltibia 47.4856
lfoot -13.373 3.08198
ltoes -11.6875
277
root 10.4741 16.8193 30.1999 6.50879 -3.92795 -5.09647
lowerback 0.806799 3.66986 6.60753
upperback -3.33256 5.12883 1.31294
thorax -3.45097 2.38295 -2.49834
lowerneck -9.16089 -1.67536 -4.0249
upperneck 16.8442 -2.34864 4.04072
head 6.73277 -1.04687 1.76662
rclavicle 2.44536e-014 -2.3059e-014
rhumerus -19.3687 1.59172 -85.0762
rradius 47.8122
rwrist -12.2298
rhand -21.5516 -39.3424
rfingers 7.12502
rthumb 4.84176 -69.2671
lclavicle 2.44536e-014 -2.3059e-014
lhumerus -49.0286 15.4842 74.8255
lradius 7.08886
lwrist -21.018
lhand -24.3791 -14.5815
lfingers 7.12502
lthumb 2.11121 15.3878
rfemur -4.33614 -4.68375 28.7725
rtibia 26.8508
rfoot -14.3891 22.5821
rtoes 1.30791
lfemur -37.513 4.94557 -15.1472
ltibia 43.4705
lfoot -14.6389 3.66347
ltoes -16.6085
